<svg width="317" height="180" viewBox="0 0 317 180" fill="none" xmlns="http://www.w3.org/2000/svg">
<path d="M302.623 55.3613H316.651V124.499H302.623V55.3613Z" fill="#1D1E29"/>
<path d="M244.903 55.3613H264.141L294.602 124.499H279.973L272.257 106.764H235.284L227.568 124.499H214.342L244.903 55.3613ZM253.72 64.4795L239.793 96.4433H267.748L253.72 64.4795Z" fill="#1D1E29"/>
<rect width="180" height="180" fill="white"/>
<path d="M179.4 0.599609V179.4H0.599609V0.599609H179.4Z" fill="white"/>
<path d="M179.4 0.599609V179.4H0.599609V0.599609H179.4Z" stroke="#FF0032" stroke-width="1.2"/>
<path d="M144.871 141.184C137.977 140.684 132.012 140.244 132.012 136.528C132.012 132.521 136.109 131.732 143.192 131.732C149.337 131.732 153.593 132.561 154.343 136.588H166.002C165.193 127.855 157.939 123.789 143.192 123.789C128.446 123.789 120.752 128.035 120.752 136.768C120.752 147.728 132.852 148.577 142.573 149.256C149.487 149.736 155.452 150.156 155.452 154.062C155.452 158.188 150.806 159.038 143.822 159.038C134.69 159.038 132.472 157.059 131.723 153.393H120.063C121.022 163.044 127.926 166.981 143.822 166.981C151.795 166.981 157.47 165.942 161.166 163.803C164.943 161.615 166.781 158.188 166.781 153.333C166.781 142.782 154.632 141.893 144.871 141.184Z" fill="#FF0032"/>
<path d="M161.087 13.8477L153.404 44.4904L144.422 13.8477H138.547H138.387H132.512L123.53 44.4904L115.847 13.8477H105.266L115.907 55.3807H129.235L138.467 24.0186L147.709 55.3807H161.027L171.667 13.8477H161.087Z" fill="#FF0032"/>
<path d="M54.7714 13.8477L41.5432 41.3132L28.3049 13.8477H13.8578V55.3807H23.9888V25.6572L36.9273 50.7648H46.1591L59.0876 25.6572V55.3807H69.2186V13.8477H54.7714Z" fill="#FF0032"/>
</svg>
