<svg width="91" height="151" viewBox="0 0 91 151" fill="none" xmlns="http://www.w3.org/2000/svg">
<g clip-path="url(#clip0_580_492)">
<path fill-rule="evenodd" clip-rule="evenodd" d="M91 98.3166V134.36C81.4119 144.584 67.7676 151 52.6147 151C23.5678 151 0 127.467 0 98.4482C0 69.4456 23.5678 45.9133 52.6147 45.9133V85.4195C45.0567 85.4195 37.4946 88.2979 31.7288 94.0558C30.3513 95.4212 29.1453 96.8939 28.1 98.4482C20.3612 109.923 21.563 125.633 31.7288 135.783C37.4946 141.525 45.0567 144.42 52.6147 144.42C60.1356 144.42 67.666 141.566 73.4276 135.848C73.4561 135.815 73.4858 135.8 73.5175 135.775V135.758L73.5916 135.701C79.37 129.935 79.37 120.566 73.5916 114.817C67.8131 109.042 58.4587 109.042 52.6845 114.817C52.6475 114.833 52.6316 114.85 52.6147 114.874V98.3166H91ZM84.4556 27.2414C87.6294 41.2334 87.5712 49.8368 86.1938 59.6497C83.696 77.318 75.6947 90.823 72.23 95.3555C69.8507 92.2787 66.2103 86.003 63.7823 80.1476C63.7823 80.1476 59.1887 69.0021 57.9753 58.1442C56.7607 47.2788 57.2823 36.2405 60.8211 23.8113C64.0648 12.6425 70.4294 2.6068 72.1729 0C73.2668 1.85033 81.268 13.243 84.4556 27.2414ZM72.1729 91.8766C73.7968 88.857 76.5855 82.2366 76.339 73.8221C75.9994 65.2346 73.1038 58.942 72.23 57.4365C71.2334 58.942 67.8787 66.1555 67.9358 74.587C68.1749 83.2806 70.6103 88.9239 72.1729 91.8766ZM83.5362 50.9964C83.6346 45.6577 83.1215 36.5853 80.5221 27.1183C77.9143 17.6513 72.8573 8.64476 72.1115 7.47557C71.3688 8.64476 67.3656 15.9569 63.831 27.4058C62.9 30.8359 61.2232 38.2808 60.9322 45.5346C60.5916 54.3353 61.7807 63.0628 62.261 65.5306C62.261 62.6193 62.3181 52.9125 64.1145 44.9012C65.9141 36.8728 69.3344 27.6361 72.1115 22.9402C75.1256 27.8833 78.9024 38.5513 80.2227 44.951C81.5642 51.3497 82.2603 59.534 81.9736 65.3333C82.7777 61.969 83.4135 56.3342 83.5362 50.9964Z" fill="#767676"/>
</g>
<defs>
<clipPath id="clip0_580_492">
<rect width="91" height="151" fill="white"/>
</clipPath>
</defs>
</svg>
