<svg width="82" height="135" viewBox="0 0 82 135" fill="none" xmlns="http://www.w3.org/2000/svg">
<g clip-path="url(#clip0_580_494)">
<path d="M66.1027 50.0891C71.0831 44.3164 73.1771 37.2986 73.1771 30.6204C73.1771 25.2439 71.7056 14.4909 62.2543 7.07701C55.7459 2.04007 50.0298 -0.336914 36.2773 -0.336914H29.3161C29.0897 -0.336914 28.92 -0.336914 28.637 -0.336914H0V134.981H81.7795V109.004C81.7795 84.1591 73.743 67.4637 52.9728 60.1064C59.4812 57.3898 63.4994 53.2584 66.1027 50.0891ZM49.86 47.4857C46.1248 52.1265 40.0691 56.4277 31.4667 56.4277C31.4101 56.4277 31.3535 56.4277 31.2969 56.4277V63.1625C54.2744 63.1625 63.273 78.4431 63.273 106.401V127.454H48.5018V82.2915H31.4667V127.511H18.4499V6.39787H31.8629C36.8998 6.39787 44.4835 7.52976 49.86 14.208C52.6332 17.6036 54.3876 22.0746 54.9536 26.6022H31.4667V33.2804H55.1233C54.9536 37.5816 54.0481 42.3922 49.86 47.4857Z" fill="#767676"/>
</g>
<defs>
<clipPath id="clip0_580_494">
<rect width="82" height="135" fill="white"/>
</clipPath>
</defs>
</svg>
