<svg width="139" height="139" viewBox="0 0 139 139" fill="none" xmlns="http://www.w3.org/2000/svg">
<g clip-path="url(#clip0_580_487)">
<path d="M109.055 105.888C104.037 105.517 99.6961 105.191 99.6961 102.438C99.6961 99.4693 102.678 98.8848 107.833 98.8848C112.305 98.8848 115.402 99.499 115.948 102.482H124.433C123.844 96.0124 118.565 93 107.833 93C97.1009 93 91.5014 96.1458 91.5014 102.616C91.5014 110.736 100.307 111.365 107.382 111.868C112.414 112.224 116.755 112.535 116.755 115.429C116.755 118.485 113.374 119.115 108.291 119.115C101.645 119.115 100.031 117.649 99.4858 114.933H91C91.6979 122.083 96.7225 125 108.291 125C114.094 125 118.224 124.23 120.914 122.645C123.662 121.024 125 118.485 125 114.888C125 107.071 116.158 106.413 109.055 105.888Z" fill="#767676"/>
<path d="M43.5614 13L34.0036 32.8388L24.4385 13H14V43H21.32V21.5302L30.6685 39.6659H37.3388L46.68 21.5302V43H54V13H43.5614Z" fill="#767676"/>
<rect x="1.5" y="1.5" width="136" height="136" stroke="#767676" stroke-width="3"/>
<path d="M91 13V19.1779H104.277L104.246 44H111.677L111.708 19.1779H125V13H91Z" fill="#767676"/>
</g>
<defs>
<clipPath id="clip0_580_487">
<rect width="139" height="139" fill="white"/>
</clipPath>
</defs>
</svg>
