<svg width="373" height="81" viewBox="0 0 373 81" fill="none" xmlns="http://www.w3.org/2000/svg">
<g clip-path="url(#clip0_580_482)">
<path d="M227.252 -0.400391C196.044 -0.400391 170.752 17.7206 170.752 40.0996C170.752 62.4786 196.044 80.5996 227.252 80.5996C258.46 80.5996 283.752 62.4786 283.752 40.0996C283.752 17.7206 258.46 -0.400391 227.252 -0.400391ZM227.252 61.7359C205.707 61.7359 189.585 50.3484 189.585 40.1491C189.585 29.9499 205.707 18.5623 227.252 18.5623C248.797 18.5623 264.919 29.9499 264.919 40.1491C264.919 50.3484 248.846 61.7359 227.252 61.7359Z" fill="#767676"/>
<path d="M40.2767 -0.400391C17.9114 -0.400391 -0.198566 17.7095 -0.248047 40.0748C-0.248047 62.4402 17.8619 80.5501 40.2272 80.5996C62.5925 80.5996 80.7025 62.4897 80.752 40.1244C80.752 17.7096 62.642 -0.400391 40.2767 -0.400391ZM61.8503 40.0748C61.8503 51.9997 52.2016 61.6485 40.2767 61.698C28.3518 61.698 18.6536 52.0492 18.6536 40.1244C18.6536 28.1995 28.3023 18.5012 40.2272 18.5012C52.1521 18.5012 61.8503 28.15 61.8503 40.0748Z" fill="#767676"/>
<path d="M155.28 59.574H123.106L164.154 4.994C165.493 3.1963 164.253 0.599609 161.973 0.599609H102.979C97.1293 0.599609 92.1222 5.99269 93.3616 12.0849C94.2539 16.5791 98.4182 19.6252 102.979 19.6252H129.402L88.3049 74.2551C86.9664 76.0528 88.2058 78.5996 90.4367 78.5996H154.933C159.494 78.5996 163.658 75.5535 164.551 71.0592C165.79 64.9171 161.13 59.574 155.28 59.574Z" fill="#767676"/>
<path d="M372.752 10.1366V75.8515C372.752 76.4502 372.553 77.049 372.154 77.548C371.206 78.7455 369.461 78.9451 368.264 77.997L316.801 37.1311V69.0654C316.801 74.4543 312.363 78.7455 306.977 78.5958C301.791 78.4461 297.752 74.0053 297.752 68.8159V3.35058C297.752 2.70192 297.951 2.10315 298.35 1.60417C299.298 0.456535 301.043 0.256982 302.19 1.20503L353.653 42.0709V10.3861C353.653 5.19677 357.692 0.805816 362.828 0.606227C368.264 0.406637 372.752 4.74769 372.752 10.1366Z" fill="#767676"/>
</g>
<defs>
<clipPath id="clip0_580_482">
<rect width="373" height="81" fill="white"/>
</clipPath>
</defs>
</svg>
