<svg xmlns="http://www.w3.org/2000/svg" width="800" height="400" viewBox="0 0 800 400">
<rect width="800" height="400" fill="#0a1a2e"/>
<defs><radialGradient id="g2" cx="50%" cy="50%" r="40%"><stop offset="0%" stop-color="#00AAFF" stop-opacity="0.12"/><stop offset="100%" stop-color="#0a1a2e" stop-opacity="0"/></radialGradient></defs>
<circle cx="400" cy="200" r="180" fill="url(#g2)"/>
<line x1="520" y1="200" x2="462" y2="236" stroke="rgba(100,200,255,0.15)" stroke-width="1"/><line x1="520" y1="200" x2="460" y2="304" stroke="rgba(100,200,255,0.15)" stroke-width="1"/><line x1="520" y1="200" x2="460" y2="96" stroke="rgba(100,200,255,0.15)" stroke-width="1"/><line x1="520" y1="200" x2="462" y2="164" stroke="rgba(100,200,255,0.15)" stroke-width="1"/><line x1="462" y1="236" x2="460" y2="304" stroke="rgba(100,200,255,0.15)" stroke-width="1"/><line x1="462" y1="236" x2="400" y2="272" stroke="rgba(100,200,255,0.15)" stroke-width="1"/><line x1="462" y1="236" x2="462" y2="164" stroke="rgba(100,200,255,0.15)" stroke-width="1"/><line x1="460" y1="304" x2="400" y2="272" stroke="rgba(100,200,255,0.15)" stroke-width="1"/><line x1="460" y1="304" x2="340" y2="304" stroke="rgba(100,200,255,0.15)" stroke-width="1"/><line x1="400" y1="272" x2="340" y2="304" stroke="rgba(100,200,255,0.15)" stroke-width="1"/><line x1="400" y1="272" x2="338" y2="236" stroke="rgba(100,200,255,0.15)" stroke-width="1"/><line x1="340" y1="304" x2="338" y2="236" stroke="rgba(100,200,255,0.15)" stroke-width="1"/><line x1="340" y1="304" x2="280" y2="200" stroke="rgba(100,200,255,0.15)" stroke-width="1"/><line x1="338" y1="236" x2="280" y2="200" stroke="rgba(100,200,255,0.15)" stroke-width="1"/><line x1="338" y1="236" x2="338" y2="164" stroke="rgba(100,200,255,0.15)" stroke-width="1"/><line x1="280" y1="200" x2="338" y2="164" stroke="rgba(100,200,255,0.15)" stroke-width="1"/><line x1="280" y1="200" x2="340" y2="96" stroke="rgba(100,200,255,0.15)" stroke-width="1"/><line x1="338" y1="164" x2="340" y2="96" stroke="rgba(100,200,255,0.15)" stroke-width="1"/><line x1="338" y1="164" x2="400" y2="128" stroke="rgba(100,200,255,0.15)" stroke-width="1"/><line x1="340" y1="96" x2="400" y2="128" stroke="rgba(100,200,255,0.15)" stroke-width="1"/><line x1="340" y1="96" x2="460" y2="96" stroke="rgba(100,200,255,0.15)" stroke-width="1"/><line x1="400" y1="128" x2="460" y2="96" stroke="rgba(100,200,255,0.15)" stroke-width="1"/><line x1="400" y1="128" x2="462" y2="164" stroke="rgba(100,200,255,0.15)" stroke-width="1"/><line x1="460" y1="96" x2="462" y2="164" stroke="rgba(100,200,255,0.15)" stroke-width="1"/><circle cx="520" cy="200" r="2.5" fill="rgba(100,200,255,0.4)"/><circle cx="462" cy="236" r="2.5" fill="rgba(100,200,255,0.4)"/><circle cx="460" cy="304" r="2.5" fill="rgba(100,200,255,0.4)"/><circle cx="400" cy="272" r="2.5" fill="rgba(100,200,255,0.4)"/><circle cx="340" cy="304" r="2.5" fill="rgba(100,200,255,0.4)"/><circle cx="338" cy="236" r="2.5" fill="rgba(100,200,255,0.4)"/><circle cx="280" cy="200" r="2.5" fill="rgba(100,200,255,0.4)"/><circle cx="338" cy="164" r="2.5" fill="rgba(100,200,255,0.4)"/><circle cx="340" cy="96" r="2.5" fill="rgba(100,200,255,0.4)"/><circle cx="400" cy="128" r="2.5" fill="rgba(100,200,255,0.4)"/><circle cx="460" cy="96" r="2.5" fill="rgba(100,200,255,0.4)"/><circle cx="462" cy="164" r="2.5" fill="rgba(100,200,255,0.4)"/><circle cx="463" cy="224" r="1" fill="rgba(100,200,255,0.1)"/><circle cx="254" cy="336" r="1" fill="rgba(100,200,255,0.1)"/><circle cx="233" cy="147" r="1" fill="rgba(100,200,255,0.1)"/><circle cx="304" cy="98" r="1" fill="rgba(100,200,255,0.1)"/><circle cx="138" cy="158" r="1" fill="rgba(100,200,255,0.1)"/><circle cx="442" cy="301" r="1" fill="rgba(100,200,255,0.1)"/><circle cx="750" cy="305" r="1" fill="rgba(100,200,255,0.1)"/><circle cx="141" cy="349" r="1" fill="rgba(100,200,255,0.1)"/><circle cx="551" cy="132" r="1" fill="rgba(100,200,255,0.1)"/><circle cx="481" cy="343" r="1" fill="rgba(100,200,255,0.1)"/><circle cx="652" cy="140" r="1" fill="rgba(100,200,255,0.1)"/><circle cx="432" cy="228" r="1" fill="rgba(100,200,255,0.1)"/><circle cx="748" cy="138" r="1" fill="rgba(100,200,255,0.1)"/><circle cx="205" cy="266" r="1" fill="rgba(100,200,255,0.1)"/><circle cx="726" cy="121" r="1" fill="rgba(100,200,255,0.1)"/><circle cx="630" cy="203" r="1" fill="rgba(100,200,255,0.1)"/><circle cx="134" cy="300" r="1" fill="rgba(100,200,255,0.1)"/><circle cx="743" cy="74" r="1" fill="rgba(100,200,255,0.1)"/><circle cx="530" cy="191" r="1" fill="rgba(100,200,255,0.1)"/><circle cx="462" cy="51" r="1" fill="rgba(100,200,255,0.1)"/><circle cx="325" cy="315" r="1" fill="rgba(100,200,255,0.1)"/><circle cx="57" cy="247" r="1" fill="rgba(100,200,255,0.1)"/><circle cx="258" cy="215" r="1" fill="rgba(100,200,255,0.1)"/><circle cx="597" cy="71" r="1" fill="rgba(100,200,255,0.1)"/><circle cx="523" cy="295" r="1" fill="rgba(100,200,255,0.1)"/><circle cx="252" cy="340" r="1" fill="rgba(100,200,255,0.1)"/><circle cx="523" cy="56" r="1" fill="rgba(100,200,255,0.1)"/><circle cx="416" cy="96" r="1" fill="rgba(100,200,255,0.1)"/><circle cx="271" cy="112" r="1" fill="rgba(100,200,255,0.1)"/><circle cx="502" cy="334" r="1" fill="rgba(100,200,255,0.1)"/><circle cx="231" cy="287" r="1" fill="rgba(100,200,255,0.1)"/><circle cx="726" cy="120" r="1" fill="rgba(100,200,255,0.1)"/><circle cx="87" cy="86" r="1" fill="rgba(100,200,255,0.1)"/><circle cx="73" cy="117" r="1" fill="rgba(100,200,255,0.1)"/><circle cx="535" cy="244" r="1" fill="rgba(100,200,255,0.1)"/><circle cx="133" cy="247" r="1" fill="rgba(100,200,255,0.1)"/><circle cx="697" cy="74" r="1" fill="rgba(100,200,255,0.1)"/><circle cx="196" cy="188" r="1" fill="rgba(100,200,255,0.1)"/><circle cx="682" cy="32" r="1" fill="rgba(100,200,255,0.1)"/><circle cx="440" cy="198" r="1" fill="rgba(100,200,255,0.1)"/>
</svg>